<svg width="914" height="400" fill="none" xmlns="http://www.w3.org/2000/svg"><style>#CL0 {fill: #333;}#CL1 {fill: #555;}@media (prefers-color-scheme: dark) {#CL0 {fill: #CCC;}#CL1 {fill: #AAA;}}</style><path d="M340.414 204.221c0 2.625-.61 4.634-1.832 6.029-1.212 1.395-2.971 2.092-5.277 2.092-1.03 0-1.982-.178-2.857-.533v-4.143a4.102 4.102 0 0 0 2.543.861c2.014 0 3.021-1.494 3.021-4.484v-11.648h4.402v11.826Zm8.149 7.779h-4.416v-19.605h4.416V212Zm20.358 0h-5.072l-3.049-5.045a16.654 16.654 0 0 0-.656-1.025 5.098 5.098 0 0 0-.643-.766 2.202 2.202 0 0 0-.669-.492 1.601 1.601 0 0 0-.752-.178h-1.19V212h-4.416v-19.605h7c4.758 0 7.137 1.777 7.137 5.332a5.57 5.57 0 0 1-.315 1.9 5.269 5.269 0 0 1-.888 1.559 5.621 5.621 0 0 1-1.395 1.203 7.072 7.072 0 0 1-1.804.793v.054c.291.091.574.242.847.452.274.2.538.437.793.71.255.274.497.57.725.889.237.31.451.615.642.916l3.705 5.797Zm-12.031-16.297v5.455h1.914c.948 0 1.709-.273 2.283-.82.584-.556.875-1.244.875-2.065 0-1.713-1.025-2.57-3.076-2.57h-1.996ZM387.447 212h-4.812l-1.395-4.361h-6.972L372.887 212h-4.785l7.136-19.605h5.237L387.447 212Zm-7.218-7.752-2.106-6.59c-.155-.492-.264-1.08-.328-1.763h-.109a7.53 7.53 0 0 1-.342 1.709l-2.133 6.644h5.018Z" id="CL0"/><path d="m409.515 212-2.16-5.797h-8.409L396.841 212h-2.023l7.464-19.605h1.832L411.538 212h-2.023Zm-5.975-16.174a15.017 15.017 0 0 1-.205-.601 6.864 6.864 0 0 1-.164-.78h-.055a6.37 6.37 0 0 1-.191.78 8.577 8.577 0 0 1-.191.601l-3.172 8.723h7.177l-3.199-8.723ZM418.183 212h-1.668l-5.359-14h1.928l3.869 10.664c.237.647.387 1.217.451 1.709h.055c.109-.656.25-1.208.424-1.654L421.888 198h1.873l-5.578 14Zm15.04 0v-2.488h-.055c-.455.893-1.08 1.586-1.873 2.078-.784.492-1.672.738-2.666.738a5.532 5.532 0 0 1-1.832-.287 4.043 4.043 0 0 1-1.381-.807 3.784 3.784 0 0 1-.875-1.271c-.2-.492-.3-1.035-.3-1.627 0-1.267.391-2.274 1.175-3.022.784-.756 1.969-1.248 3.555-1.476l4.252-.615c0-2.689-1.044-4.034-3.131-4.034-1.631 0-3.144.597-4.539 1.791v-1.914c.292-.209.62-.396.984-.56a8.321 8.321 0 0 1 1.176-.438c.41-.127.83-.223 1.258-.287a7.722 7.722 0 0 1 1.271-.109c1.559 0 2.735.437 3.528 1.312.802.875 1.203 2.179 1.203 3.911V212h-1.75Zm-3.609-6.795c-.629.091-1.167.205-1.614.342-.446.137-.815.323-1.107.56a2.01 2.01 0 0 0-.643.862c-.136.337-.205.756-.205 1.258 0 .373.064.72.192 1.039.136.319.328.597.574.834.255.227.56.405.916.533.364.127.775.191 1.23.191.62 0 1.19-.118 1.709-.355.52-.237.966-.565 1.34-.985a4.41 4.41 0 0 0 .889-1.504 5.36 5.36 0 0 0 .328-1.9v-1.381l-3.609.506Zm15.026 6.631a4.34 4.34 0 0 1-1.969.451c-2.261 0-3.391-1.303-3.391-3.91v-8.846h-2.461V198h2.461v-3.527l1.75-.575V198h3.61v1.531h-3.61v8.573c0 .947.155 1.631.465 2.05.31.42.834.629 1.572.629.547 0 1.071-.164 1.573-.492v1.545Zm10.404.164v-2.488h-.054c-.456.893-1.08 1.586-1.873 2.078-.784.492-1.673.738-2.666.738a5.524 5.524 0 0 1-1.832-.287 4.043 4.043 0 0 1-1.381-.807 3.756 3.756 0 0 1-.875-1.271 4.265 4.265 0 0 1-.301-1.627c0-1.267.392-2.274 1.176-3.022.784-.756 1.968-1.248 3.554-1.476l4.252-.615c0-2.689-1.043-4.034-3.13-4.034-1.632 0-3.145.597-4.54 1.791v-1.914a5.7 5.7 0 0 1 .985-.56 8.276 8.276 0 0 1 1.176-.438c.41-.127.829-.223 1.257-.287a7.734 7.734 0 0 1 1.272-.109c1.558 0 2.734.437 3.527 1.312.802.875 1.203 2.179 1.203 3.911V212h-1.75Zm-3.609-6.795c-.629.091-1.167.205-1.613.342-.447.137-.816.323-1.108.56a2.007 2.007 0 0 0-.642.862c-.137.337-.205.756-.205 1.258 0 .373.063.72.191 1.039.137.319.328.597.574.834.255.227.561.405.916.533.365.127.775.191 1.231.191a3.995 3.995 0 0 0 3.049-1.34c.382-.419.679-.92.888-1.504a5.36 5.36 0 0 0 .328-1.9v-1.381l-3.609.506Zm15.956-5.414c-.411-.301-.939-.451-1.586-.451-.465 0-.875.091-1.231.273-.355.173-.67.41-.943.711a4.594 4.594 0 0 0-.684 1.053 8.01 8.01 0 0 0-.451 1.23c-.109.429-.191.862-.246 1.299-.046.438-.068.852-.068 1.244V212h-1.737v-14h1.737v2.994h.054c.164-.51.369-.966.616-1.367.255-.41.546-.752.875-1.025a3.572 3.572 0 0 1 1.066-.643 3.495 3.495 0 0 1 1.23-.219c.283 0 .534.018.752.055.228.036.433.091.616.164v1.832Zm1.381 9.693c.264.21.551.397.861.561.31.164.629.305.957.424.329.118.657.209.985.273.337.055.656.082.957.082 2.078 0 3.117-.779 3.117-2.338 0-.355-.073-.66-.219-.916a2.304 2.304 0 0 0-.629-.711 5.037 5.037 0 0 0-.984-.601 27.995 27.995 0 0 0-1.299-.574 13.197 13.197 0 0 1-1.668-.807 5.15 5.15 0 0 1-1.148-.889 3.321 3.321 0 0 1-.67-1.066 3.779 3.779 0 0 1-.219-1.326c0-.62.132-1.172.397-1.655a3.917 3.917 0 0 1 1.093-1.23c.456-.337.98-.593 1.573-.766a6.473 6.473 0 0 1 1.886-.273c1.213 0 2.27.228 3.172.683v1.846c-1.048-.674-2.178-1.012-3.39-1.012-.438 0-.839.055-1.204.165-.355.109-.66.264-.916.464a2.195 2.195 0 0 0-.601.725 2.015 2.015 0 0 0-.205.916c0 .346.054.652.164.916.109.255.278.488.506.697.237.21.537.41.902.602.374.191.825.396 1.354.615a16.16 16.16 0 0 1 1.75.82c.492.265.897.556 1.216.875.319.31.556.661.711 1.053.155.383.233.83.233 1.34 0 .629-.132 1.189-.397 1.682a3.534 3.534 0 0 1-1.08 1.244 4.899 4.899 0 0 1-1.613.765c-.62.174-1.294.26-2.024.26-1.412 0-2.602-.296-3.568-.889v-1.955ZM498.468 212l-2.953-5.619a11.179 11.179 0 0 0-.847-1.395 4.193 4.193 0 0 0-.848-.888 2.642 2.642 0 0 0-.943-.479c-.328-.1-.698-.15-1.108-.15h-2.16V212h-1.818v-19.605h5.646c.738 0 1.449.109 2.133.328a5.666 5.666 0 0 1 1.846.97c.537.429.966.967 1.285 1.614.328.647.492 1.399.492 2.255 0 .693-.105 1.331-.314 1.915a4.929 4.929 0 0 1-.903 1.558c-.383.447-.852.83-1.408 1.149a6.765 6.765 0 0 1-1.859.697v.055c.264.109.506.25.724.423.219.174.429.383.629.629.21.246.415.529.615.848.201.319.411.684.629 1.094l3.295 6.07h-2.133Zm-8.859-17.938v7.752h3.254a5.42 5.42 0 0 0 1.805-.287 3.923 3.923 0 0 0 1.394-.82c.392-.355.693-.784.903-1.285.218-.501.328-1.067.328-1.695 0-1.14-.369-2.033-1.108-2.68-.729-.656-1.786-.985-3.172-.985h-3.404Zm13.536 11.252c.009.857.123 1.627.342 2.311.218.684.533 1.262.943 1.736.41.474.907.839 1.49 1.094.593.246 1.258.369 1.996.369 1.577 0 3.067-.551 4.471-1.654v1.723c-1.34.957-2.962 1.435-4.867 1.435-.939 0-1.791-.164-2.557-.492a5.339 5.339 0 0 1-1.955-1.422c-.538-.629-.952-1.399-1.244-2.31-.292-.912-.438-1.951-.438-3.118 0-1.048.16-2.019.479-2.912.319-.893.761-1.663 1.326-2.31a5.989 5.989 0 0 1 2.01-1.532 5.785 5.785 0 0 1 2.543-.56c.902 0 1.7.159 2.392.478a4.58 4.58 0 0 1 1.737 1.34c.474.584.834 1.295 1.08 2.133.246.839.369 1.777.369 2.816v.875h-10.117Zm8.312-1.531c-.027-1.458-.373-2.588-1.039-3.39-.665-.803-1.59-1.204-2.775-1.204a4.3 4.3 0 0 0-1.654.315c-.502.21-.944.515-1.327.916a4.925 4.925 0 0 0-.957 1.449 7.341 7.341 0 0 0-.519 1.914h8.271Zm6.427 5.961v8.695h-1.75V198h1.75v2.68h.054c.52-.976 1.213-1.718 2.078-2.229.875-.519 1.86-.779 2.954-.779.893 0 1.69.164 2.392.492a4.828 4.828 0 0 1 1.791 1.367c.492.593.866 1.313 1.121 2.16.265.848.397 1.801.397 2.858 0 1.157-.146 2.215-.438 3.172-.291.948-.711 1.763-1.258 2.447a5.757 5.757 0 0 1-1.996 1.6c-.774.373-1.649.56-2.625.56-1.968 0-3.44-.861-4.416-2.584h-.054Zm0-3.568c0 .638.104 1.239.314 1.804.219.556.52 1.049.902 1.477.383.419.844.752 1.381.998a4.351 4.351 0 0 0 1.805.369c.702 0 1.335-.146 1.9-.437a4.16 4.16 0 0 0 1.436-1.272c.401-.547.706-1.207.916-1.982.219-.775.328-1.641.328-2.598 0-.82-.1-1.558-.301-2.215-.2-.665-.487-1.23-.861-1.695a3.625 3.625 0 0 0-1.34-1.066c-.519-.247-1.103-.37-1.75-.37-.729 0-1.385.137-1.969.411a4.367 4.367 0 0 0-1.49 1.093 4.856 4.856 0 0 0-.943 1.641 5.909 5.909 0 0 0-.328 1.982v1.86ZM531.652 212v-20.727h1.75V212h-1.75Zm13.768 0v-2.488h-.055c-.456.893-1.08 1.586-1.873 2.078-.784.492-1.672.738-2.666.738a5.532 5.532 0 0 1-1.832-.287 4.043 4.043 0 0 1-1.381-.807 3.784 3.784 0 0 1-.875-1.271 4.284 4.284 0 0 1-.301-1.627c0-1.267.392-2.274 1.176-3.022.784-.756 1.969-1.248 3.555-1.476l4.252-.615c0-2.689-1.044-4.034-3.131-4.034-1.632 0-3.145.597-4.539 1.791v-1.914c.292-.209.62-.396.984-.56a8.321 8.321 0 0 1 1.176-.438c.41-.127.83-.223 1.258-.287a7.713 7.713 0 0 1 1.271-.109c1.559 0 2.735.437 3.528 1.312.802.875 1.203 2.179 1.203 3.911V212h-1.75Zm-3.61-6.795c-.628.091-1.166.205-1.613.342-.446.137-.816.323-1.107.56a2.01 2.01 0 0 0-.643.862c-.137.337-.205.756-.205 1.258 0 .373.064.72.192 1.039.136.319.328.597.574.834.255.227.56.405.916.533.364.127.775.191 1.23.191.62 0 1.19-.118 1.709-.355.52-.237.966-.565 1.34-.985a4.41 4.41 0 0 0 .889-1.504 5.382 5.382 0 0 0 .328-1.9v-1.381l-3.61.506Zm18.321 6.166c-1.039.629-2.297.953-3.773.971-1.003.009-1.905-.164-2.707-.52a5.966 5.966 0 0 1-2.051-1.476 6.688 6.688 0 0 1-1.299-2.242 8.525 8.525 0 0 1-.451-2.817c0-1.048.16-2.032.479-2.953a6.986 6.986 0 0 1 1.394-2.42 6.557 6.557 0 0 1 2.242-1.641c.884-.401 1.896-.601 3.035-.601 1.158 0 2.215.223 3.172.67v1.859c-1.02-.674-2.123-1.012-3.308-1.012-.83 0-1.568.16-2.215.479a4.73 4.73 0 0 0-1.641 1.285 5.84 5.84 0 0 0-1.011 1.901 7.56 7.56 0 0 0-.342 2.296c0 .748.095 1.463.287 2.147.2.683.501 1.29.902 1.818.41.52.925.934 1.545 1.244.62.31 1.349.465 2.188.465a5.82 5.82 0 0 0 3.554-1.176v1.723Zm3.651-6.057c.009.857.123 1.627.342 2.311.219.684.533 1.262.943 1.736a4.14 4.14 0 0 0 1.491 1.094c.592.246 1.257.369 1.996.369 1.577 0 3.067-.551 4.47-1.654v1.723c-1.339.957-2.962 1.435-4.867 1.435-.939 0-1.791-.164-2.556-.492a5.322 5.322 0 0 1-1.955-1.422c-.538-.629-.953-1.399-1.245-2.31-.291-.912-.437-1.951-.437-3.118 0-1.048.159-2.019.478-2.912.319-.893.762-1.663 1.327-2.31a5.995 5.995 0 0 1 2.009-1.532 5.788 5.788 0 0 1 2.543-.56c.903 0 1.7.159 2.393.478.693.31 1.271.757 1.736 1.34.474.584.834 1.295 1.08 2.133.246.839.369 1.777.369 2.816v.875h-10.117Zm8.313-1.531c-.028-1.458-.374-2.588-1.039-3.39-.666-.803-1.591-1.204-2.776-1.204-.592 0-1.144.105-1.654.315-.501.21-.943.515-1.326.916a4.886 4.886 0 0 0-.957 1.449 7.38 7.38 0 0 0-.52 1.914h8.272Zm11.621-3.992c-.41-.301-.938-.451-1.586-.451-.464 0-.875.091-1.23.273-.355.173-.67.41-.943.711a4.529 4.529 0 0 0-.684 1.053 7.906 7.906 0 0 0-.451 1.23c-.109.429-.192.862-.246 1.299-.046.438-.069.852-.069 1.244V212h-1.736v-14h1.736v2.994h.055c.164-.51.369-.966.615-1.367.256-.41.547-.752.875-1.025a3.576 3.576 0 0 1 1.067-.643 3.495 3.495 0 0 1 1.23-.219c.283 0 .533.018.752.055.228.036.433.091.615.164v1.832Z" id="CL1"/></svg>